<svg width="85" height="85" viewBox="0 0 85 85" fill="none" xmlns="http://www.w3.org/2000/svg">
<path d="M36.2773 57.7787L21.25 42.7479L26.2579 37.74L36.2773 47.7558L56.309 27.7206L61.3204 32.7321L36.2773 57.7717V57.7787Z" fill="#05B70C"/>
<path fill-rule="evenodd" clip-rule="evenodd" d="M3.54199 42.5C3.54199 20.9844 20.9847 3.54167 42.5003 3.54167C64.016 3.54167 81.4587 20.9844 81.4587 42.5C81.4587 64.0156 64.016 81.4583 42.5003 81.4583C20.9847 81.4583 3.54199 64.0156 3.54199 42.5ZM42.5003 74.375C38.3144 74.375 34.1695 73.5505 30.3023 71.9487C26.435 70.3468 22.9212 67.9989 19.9613 65.039C17.0014 62.0792 14.6535 58.5653 13.0517 54.698C11.4498 50.8308 10.6253 46.6859 10.6253 42.5C10.6253 38.3141 11.4498 34.1692 13.0517 30.302C14.6535 26.4347 17.0014 22.9208 19.9613 19.961C22.9212 17.0011 26.435 14.6532 30.3023 13.0513C34.1695 11.4495 38.3144 10.625 42.5003 10.625C50.9541 10.625 59.0616 13.9833 65.0394 19.961C71.0171 25.9387 74.3753 34.0462 74.3753 42.5C74.3753 50.9538 71.0171 59.0613 65.0394 65.039C59.0616 71.0167 50.9541 74.375 42.5003 74.375Z" fill="#05B70C"/>
</svg>
