<svg width="54" height="46" viewBox="0 0 54 46" fill="none" xmlns="http://www.w3.org/2000/svg">
<g clip-path="url(#clip0_36_1122)">
<path d="M53.0661 12.8989C52.9141 12.7143 52.7124 12.5635 52.4781 12.4594C52.2437 12.3553 51.9836 12.3009 51.7195 12.3008H16.5433L13.8806 4.4468C12.8364 1.35413 10.3551 1.02026 9.33743 1.02026H2.23771C1.32771 1.02026 0.591797 1.65042 0.591797 2.42802C0.591797 3.20562 1.32854 3.83574 2.23765 3.83574L5.7633 3.84542L9.33655 3.83574C9.56113 3.83574 10.2465 3.83574 10.7139 5.21727L19.8739 34.0111C20.0728 34.6186 20.72 35.0382 21.4584 35.0382H43.8324C44.5269 35.0382 45.1468 34.666 45.3814 34.1068L53.2675 14.1848C53.449 13.7531 53.3736 13.2725 53.0661 12.8989ZM42.3011 31.569H24.4927L22.2642 24.008L19.8739 16.447H46.4263L42.3011 31.569ZM39.4098 37.8914C37.1209 37.8914 35.2662 39.4777 35.2662 41.4356C35.2662 43.3934 37.1209 44.9798 39.4098 44.9798C41.6988 44.9798 43.5535 43.3934 43.5535 41.4356C43.5535 39.4777 41.6988 37.8914 39.4098 37.8914ZM24.4927 37.8914C22.2038 37.8914 20.3491 39.4777 20.3491 41.4356C20.3491 43.3934 22.2038 44.9798 24.4927 44.9798C26.7817 44.9798 28.6364 43.3934 28.6364 41.4356C28.6364 39.4777 26.7817 37.8914 24.4927 37.8914Z" fill="white"/>
</g>
<defs>
<clipPath id="clip0_36_1122">
<rect width="53.0387" height="45.3659" fill="white" transform="translate(0.458984 0.317017)"/>
</clipPath>
</defs>
</svg>
