<svg width="40" height="27" viewBox="0 0 40 27" fill="none" xmlns="http://www.w3.org/2000/svg">
<path d="M4.87928 12.7156H37.4257C37.8573 12.7156 38.2712 12.7683 38.5764 12.862C38.8816 12.9558 39.0531 13.083 39.0531 13.2156C39.0531 13.3482 38.8816 13.4754 38.5764 13.5691C38.2712 13.6629 37.8573 13.7156 37.4257 13.7156H4.87928C4.44768 13.7156 4.03377 13.6629 3.72859 13.5691C3.4234 13.4754 3.25195 13.3482 3.25195 13.2156C3.25195 13.083 3.4234 12.9558 3.72859 12.862C4.03377 12.7683 4.44768 12.7156 4.87928 12.7156Z" fill="white"/>
<path d="M7.22964 13.4838L18.6797 23.9956C18.991 24.2336 19.1658 24.5565 19.1658 24.8931C19.1658 25.2297 18.991 25.5526 18.6797 25.7906C18.3685 26.0287 17.9464 26.1624 17.5063 26.1624C17.0661 26.1624 16.644 26.0287 16.3328 25.7906L1.41565 14.3813C1.2613 14.2636 1.13884 14.1237 1.05528 13.9697C0.971722 13.8156 0.928711 13.6505 0.928711 13.4838C0.928711 13.317 0.971722 13.1519 1.05528 12.9979C1.13884 12.8439 1.2613 12.704 1.41565 12.5863L16.3328 1.17695C16.644 0.938905 17.0661 0.805176 17.5063 0.805176C17.9464 0.805176 18.3685 0.938905 18.6797 1.17695C18.991 1.41499 19.1658 1.73784 19.1658 2.07448C19.1658 2.41112 18.991 2.73397 18.6797 2.97201L7.22964 13.4838Z" fill="white"/>
</svg>
