<svg width="142" height="107" viewBox="0 0 142 107" fill="none" xmlns="http://www.w3.org/2000/svg">
<path d="M130.167 0H11.8333C5.38417 0.236667 0.236667 5.38417 0 11.8333V94.6667C0.236667 101.116 5.38417 106.263 11.8333 106.5H130.167C136.616 106.263 141.763 101.116 142 94.6667V11.8333C141.891 8.72961 140.609 5.78261 138.413 3.5866C136.217 1.39058 133.27 0.108899 130.167 0ZM130.167 94.6667H11.8333V11.8333H130.167V94.6667ZM82.8333 82.8333V75.4375C82.8333 65.6158 63.0717 60.6458 53.25 60.6458C43.4283 60.6458 23.6667 65.6158 23.6667 75.4375V82.8333H82.8333ZM53.25 23.6667C49.327 23.6667 45.5647 25.2251 42.7907 27.999C40.0167 30.773 38.4583 34.5353 38.4583 38.4583C38.4583 40.4008 38.8409 42.3243 39.5843 44.1189C40.3276 45.9135 41.4172 47.5441 42.7907 48.9176C45.5647 51.6916 49.327 53.25 53.25 53.25C55.1925 53.25 57.1159 52.8674 58.9105 52.1241C60.7051 51.3807 62.3358 50.2912 63.7093 48.9176C65.0828 47.5441 66.1724 45.9135 66.9157 44.1189C67.6591 42.3243 68.0417 40.4008 68.0417 38.4583C68.0417 36.5159 67.6591 34.5924 66.9157 32.7978C66.1724 31.0032 65.0828 29.3726 63.7093 27.999C62.3358 26.6255 60.7051 25.536 58.9105 24.7926C57.1159 24.0493 55.1925 23.6667 53.25 23.6667ZM82.8333 23.6667V29.5833H118.333V23.6667H82.8333ZM82.8333 35.5V41.4167H118.333V35.5H82.8333ZM82.8333 47.3333V53.25H106.5V47.3333H82.8333Z" fill="#009406"/>
</svg>
