<svg width="40" height="40" viewBox="0 0 40 40" fill="none" xmlns="http://www.w3.org/2000/svg">
<g id="mdi:close-box-multiple">
<path id="Vector" d="M6.66666 33.3335H30V36.6668H6.66666C5.78261 36.6668 4.93476 36.3156 4.30964 35.6905C3.68452 35.0654 3.33333 34.2176 3.33333 33.3335V10.0002H6.66666V33.3335ZM33.7 3.3335H12.9667C11.3333 3.3335 9.99999 4.66683 9.99999 6.30016V27.0335C9.99999 28.6668 11.3333 30.0002 12.9667 30.0002H33.7C35.3333 30.0002 36.6667 28.6668 36.6667 27.0335V6.30016C36.6667 4.66683 35.3333 3.3335 33.7 3.3335ZM31.6667 22.6668L29.3333 25.0002L23.3333 19.0002L17.3333 25.0002L15 22.6668L21 16.6668L15 10.6668L17.3333 8.3335L23.3333 14.3335L29.3333 8.3335L31.6667 10.6668L25.6667 16.6668L31.6667 22.6668Z" fill="#E25C3E"/>
</g>
</svg>
