<svg xmlns="http://www.w3.org/2000/svg" width="22" height="22" viewBox="0 0 22 22" fill="none">
  <path fill-rule="evenodd" clip-rule="evenodd" d="M12.6411 9.11986C12.6411 11.5538 10.7747 13.2397 8.82057 13.2397C6.86648 13.2397 5 11.5538 5 9.11986C5 6.68595 6.86648 5 8.82057 5C10.7747 5 12.6411 6.68595 12.6411 9.11986ZM13.8102 16.6414C12.3911 17.6496 10.6725 18.2397 8.82057 18.2397C3.94911 18.2397 0 14.1566 0 9.11986C0 4.0831 3.94911 0 8.82057 0C13.692 0 17.6411 4.0831 17.6411 9.11986C17.6411 10.5873 17.3059 11.9739 16.7103 13.202C17.1439 13.3193 17.5514 13.5606 17.8796 13.9242L21.3171 17.7323C22.2423 18.7572 22.1869 20.3653 21.1934 21.324C20.1998 22.2828 18.6444 22.2292 17.7192 21.2043L14.2816 17.3962C14.0764 17.1688 13.9194 16.9127 13.8102 16.6414Z" fill="#707365"/>
</svg>